<?xml version="1.0" standalone="no"?>
<!DOCTYPE svg PUBLIC "-//W3C//DTD SVG 20010904//EN"
 "http://www.w3.org/TR/2001/REC-SVG-20010904/DTD/svg10.dtd">
<svg version="1.0" xmlns="http://www.w3.org/2000/svg"
 width="1000.000000pt" height="1000.000000pt" viewBox="0 0 1000.000000 1000.000000"
 preserveAspectRatio="xMidYMid meet">
<metadata>
Created by potrace 1.11, written by Peter Selinger 2001-2013
</metadata>
<g transform="translate(0.000000,1000.000000) scale(0.100000,-0.100000)"
fill="#000000" stroke="none">
<path d="M0 5000 l0 -5000 5000 0 5000 0 0 5000 0 5000 -5000 0 -5000 0 0
-5000z m7714 3804 c39 -15 -5 -108 -47 -102 -16 2 -21 10 -20 31 2 43 2 45 19
61 17 18 24 19 48 10z m206 -44 c0 -18 -3 -19 -20 -10 -22 12 -18 30 6 30 8 0
14 -9 14 -20z m-380 6 c0 -3 -4 -8 -10 -11 -5 -3 -10 -1 -10 4 0 6 5 11 10 11
6 0 10 -2 10 -4z m15 -70 c22 -10 58 -27 80 -38 30 -15 56 -19 105 -16 56 3
66 6 75 26 14 32 52 29 68 -5 16 -39 29 -45 45 -22 7 10 20 19 28 19 26 0 94
-52 100 -76 5 -19 11 -23 29 -18 30 8 41 -13 20 -36 -23 -26 -13 -95 17 -119
l21 -17 -32 -13 c-17 -8 -31 -19 -31 -25 0 -24 32 -56 56 -56 20 0 24 5 24 28
0 21 7 32 25 40 29 13 30 20 10 58 -23 44 -19 54 20 54 29 0 35 -4 36 -22 2
-41 -3 -73 -13 -85 -5 -7 -7 -17 -3 -23 4 -6 2 -17 -5 -25 -7 -8 -7 -15 -1
-19 5 -4 12 -2 16 4 13 22 52 9 90 -30 35 -35 38 -43 27 -60 -6 -11 -12 -30
-12 -43 0 -25 26 -67 42 -67 5 0 26 -8 46 -17 26 -12 37 -14 40 -5 2 7 12 12
22 12 14 0 20 -10 25 -44 9 -55 4 -63 -40 -72 -32 -6 -42 -1 -117 60 -46 36
-90 72 -98 80 -8 7 -26 19 -40 26 -14 7 -36 22 -50 35 -33 29 -112 72 -149 80
-17 4 -41 21 -56 41 -14 19 -35 34 -46 34 -11 0 -35 10 -52 23 -18 12 -41 24
-51 25 -11 2 -32 17 -47 33 -15 16 -37 29 -49 29 -11 0 -33 6 -48 14 -15 7
-58 16 -95 19 -59 4 -73 9 -100 35 -18 16 -45 32 -60 36 -16 4 -27 12 -25 18
6 16 88 12 156 -8 12 -3 22 -3 22 2 0 9 -69 74 -80 74 -4 0 -12 11 -18 24 -8
18 -7 27 6 40 9 9 19 15 22 13 3 -1 23 -11 45 -21z m-300 -16 c3 -5 -1 -10 -9
-10 -9 0 -16 5 -16 10 0 6 4 10 9 10 6 0 13 -4 16 -10z m-1342 -44 c18 -7 40
-22 50 -33 18 -20 17 -21 -9 -42 -19 -15 -30 -18 -34 -10 -6 8 -9 8 -14 0 -4
-6 -4 -16 -1 -22 9 -14 -20 -44 -56 -59 -40 -17 -21 -40 35 -40 92 0 116 -32
41 -55 -22 -7 -62 -24 -89 -39 -27 -14 -55 -26 -62 -26 -8 0 -14 -4 -14 -9 0
-5 -21 -17 -47 -27 -27 -10 -55 -23 -63 -30 -8 -7 -35 -22 -60 -33 -25 -11
-76 -41 -115 -65 -38 -25 -75 -45 -81 -46 -6 0 -17 -7 -24 -15 -16 -20 -47
-19 -58 1 -15 27 -54 10 -118 -51 -32 -30 -62 -55 -66 -55 -5 0 -8 -9 -8 -19
0 -13 -9 -21 -30 -26 -16 -4 -30 -13 -30 -20 0 -8 -12 -25 -26 -39 -15 -13
-23 -29 -20 -35 8 -12 37 -15 35 -3 -1 4 -1 15 0 25 1 22 44 23 66 1 13 -13
19 -14 28 -5 9 10 8 14 -5 22 -10 6 -18 18 -18 29 0 23 30 24 83 2 36 -15 38
-14 58 6 11 12 26 22 33 22 7 0 24 8 37 18 13 11 39 24 57 30 18 6 45 20 59
32 14 11 36 20 49 20 12 0 25 6 27 13 4 9 6 9 6 -2 1 -16 -82 -95 -121 -117
-16 -8 -28 -18 -28 -23 0 -5 -15 -14 -32 -22 -18 -7 -47 -24 -65 -38 -17 -14
-48 -37 -68 -51 -20 -14 -49 -35 -65 -48 -16 -12 -42 -27 -58 -33 -16 -5 -34
-21 -40 -34 -7 -14 -16 -25 -22 -25 -22 0 -317 -265 -445 -401 -75 -79 -100
-99 -103 -84 -5 22 39 104 58 110 8 3 26 24 40 47 46 77 93 143 146 205 29 34
56 73 59 85 4 13 15 31 24 41 9 11 23 35 31 55 20 48 48 95 83 139 15 20 27
42 27 49 0 8 9 14 19 14 20 0 121 91 121 109 0 17 -7 14 -70 -25 -37 -23 -60
-45 -64 -60 -4 -13 -12 -24 -19 -24 -14 0 -87 -83 -87 -98 0 -9 -30 -50 -82
-113 -7 -8 -31 -37 -54 -65 -53 -64 -94 -135 -94 -163 0 -13 -9 -26 -25 -33
-13 -6 -27 -19 -30 -29 -3 -10 -15 -21 -26 -24 -10 -4 -25 -17 -32 -29 -18
-35 -71 -76 -101 -78 -14 -1 -26 -8 -26 -14 0 -7 -13 -15 -29 -19 -20 -4 -34
-17 -44 -38 -9 -18 -32 -48 -53 -67 -60 -57 -94 -150 -59 -164 8 -3 15 -16 15
-30 0 -28 -68 -89 -111 -99 -14 -4 -31 -18 -37 -32 -7 -14 -20 -25 -31 -25
-11 0 -23 -9 -26 -20 -3 -11 -13 -20 -21 -20 -17 0 -18 14 -1 32 26 28 67 87
67 97 0 6 -14 11 -32 11 -23 0 -38 -8 -53 -26 l-20 -25 -24 20 c-13 12 -29 21
-35 21 -16 0 -140 -107 -150 -131 -17 -36 5 -41 82 -16 62 20 76 22 102 11 41
-18 38 -42 -12 -83 -36 -31 -115 -61 -157 -61 -8 0 -23 -8 -33 -17 -16 -14
-37 -17 -122 -15 -99 1 -104 0 -125 -24 -20 -23 -28 -25 -64 -20 -23 4 -74 8
-113 9 -73 2 -114 21 -114 53 0 21 41 84 61 95 11 5 19 15 19 23 0 7 19 28 42
47 23 19 68 60 101 92 32 31 65 57 74 57 14 0 285 265 328 321 24 31 136 157
180 203 41 42 73 91 92 138 8 21 32 53 53 71 20 17 64 64 96 102 32 39 64 73
70 78 7 4 31 25 54 47 24 23 56 48 73 57 17 8 57 37 89 64 32 27 68 54 81 60
12 7 27 18 34 25 7 7 37 19 66 28 35 10 79 37 136 82 71 56 88 65 114 61 40
-5 92 16 112 47 10 15 48 36 113 61 143 54 183 73 238 111 203 142 208 144
324 165 119 22 143 22 183 5z m2517 -302 c0 -8 -4 -14 -9 -14 -6 0 -9 9 -8 19
1 22 17 18 17 -5z m187 -161 c6 -17 -33 -53 -57 -53 -17 0 -20 7 -20 43 0 24
3 47 7 50 8 9 65 -24 70 -40z m13 -183 c24 -24 25 -34 4 -54 -22 -22 -50 -20
-74 6 -26 28 -25 34 8 52 35 20 38 20 62 -4z m113 -122 c5 -22 15 -38 23 -38
16 0 19 -16 4 -25 -5 -3 -18 3 -29 14 -11 11 -21 17 -24 15 -9 -9 -57 16 -57
30 0 23 30 47 53 44 15 -2 24 -14 30 -40z m-3793 -503 c0 -12 -28 -35 -44 -35
-8 0 -7 35 1 43 12 13 43 7 43 -8z m-140 -147 c-28 -26 -55 -48 -60 -48 -27 0
-19 46 9 55 10 3 24 16 31 30 7 13 25 28 39 33 46 16 37 -18 -19 -70z m-100
-78 c-8 -5 -17 -7 -19 -4 -3 3 1 9 9 14 8 5 17 7 19 4 3 -3 -1 -9 -9 -14z
m-260 -41 c0 -24 -63 -89 -86 -89 -25 0 -15 33 23 72 42 43 63 48 63 17z m164
-51 c-56 -80 -172 -190 -198 -186 -16 2 -20 9 -18 28 4 38 197 207 240 209 6
1 -4 -23 -24 -51z m-274 -62 c0 -2 -7 -9 -15 -16 -12 -10 -15 -10 -15 4 0 9 7
16 15 16 8 0 15 -2 15 -4z m1388 -185 c-96 -109 -146 -143 -169 -115 -16 20
-4 41 42 71 19 12 41 29 49 37 21 20 82 46 93 39 5 -3 -2 -17 -15 -32z m-1322
-12 c19 -11 34 -24 34 -29 0 -4 -14 -14 -32 -21 -18 -7 -46 -25 -62 -40 -20
-17 -43 -26 -63 -26 -18 0 -36 -3 -40 -7 -10 -10 17 -26 43 -26 32 0 58 -34
50 -66 -7 -25 -10 -26 -49 -21 -28 4 -48 14 -59 29 -49 66 -80 76 -100 33 -12
-27 -38 -34 -38 -11 0 8 -14 26 -32 40 l-32 25 25 11 c13 6 39 33 57 61 36 55
66 64 76 24 6 -22 12 -25 51 -25 37 0 47 4 62 26 15 23 43 42 67 43 5 1 24 -8
42 -20z m1972 -199 c81 -49 55 -174 -30 -149 -56 16 -106 79 -93 118 5 18 52
49 75 50 8 1 30 -8 48 -19z m-1888 -46 c0 -9 -5 -14 -12 -12 -18 6 -21 28 -4
28 9 0 16 -7 16 -16z m-1245 -59 c49 -49 62 -83 45 -114 -10 -19 -20 -21 -101
-21 -98 0 -118 -12 -84 -50 31 -34 -8 -120 -54 -120 -11 0 -52 -16 -92 -35
-69 -32 -77 -33 -116 -23 -65 18 -93 1 -93 -57 0 -39 -4 -47 -24 -55 -13 -5
-28 -22 -34 -39 -10 -28 -15 -31 -56 -31 -27 0 -58 -8 -80 -21 -22 -12 -43
-18 -55 -14 -11 3 -35 0 -53 -8 -58 -25 -122 -39 -166 -38 -55 2 -74 -9 -87
-51 -8 -23 -21 -36 -41 -43 -17 -5 -47 -24 -68 -42 -22 -18 -54 -33 -75 -36
-20 -2 -80 -17 -133 -33 -77 -22 -98 -32 -98 -46 0 -11 13 -23 34 -32 18 -8
37 -19 41 -25 11 -19 -15 -41 -49 -41 -22 0 -40 -8 -56 -25 -12 -13 -44 -31
-70 -40 -26 -9 -55 -24 -64 -34 -10 -11 -38 -24 -64 -31 -85 -21 -176 -78
-218 -135 -20 -29 -54 -62 -73 -75 -41 -25 -155 -185 -147 -206 3 -8 16 -14
28 -14 41 0 52 -14 40 -48 -8 -23 -7 -35 5 -51 20 -29 12 -44 -34 -68 -121
-63 -198 -115 -241 -164 -74 -85 -92 -116 -105 -174 -10 -51 -12 -54 -36 -48
-15 3 -32 11 -39 18 -33 30 -42 182 -17 295 27 125 77 272 118 345 6 11 20 38
30 60 11 22 23 42 28 45 5 3 19 24 31 46 28 49 79 127 87 134 4 3 32 39 63 80
31 41 69 89 85 107 15 17 35 40 44 50 42 48 286 253 302 253 4 0 29 15 55 33
53 38 206 117 225 117 7 0 30 9 50 19 21 11 90 35 155 55 223 69 277 85 327
100 75 22 185 65 208 81 12 8 28 15 35 15 8 0 51 21 96 46 162 93 174 98 275
104 77 5 96 9 107 25 22 32 72 83 91 94 39 22 73 13 118 -34z m1405 -126 c0
-5 -4 -9 -10 -9 -5 0 -10 7 -10 16 0 8 5 12 10 9 6 -3 10 -10 10 -16z m-890
-32 c0 -6 -18 -32 -41 -56 -37 -39 -40 -47 -36 -85 3 -22 8 -53 12 -69 6 -23
4 -27 -11 -24 -29 4 -111 46 -125 63 -15 18 5 58 55 113 48 51 146 91 146 58z
m-332 -324 c54 -61 31 -87 -55 -62 -50 14 -70 41 -59 84 6 25 10 27 44 22 26
-4 47 -17 70 -44z m-893 -163 c-5 -8 -11 -8 -17 -2 -6 6 -7 16 -3 22 5 8 11 8
17 2 6 -6 7 -16 3 -22z m-734 -795 c28 -15 29 -16 13 -40 -8 -13 -34 -30 -57
-38 -73 -25 -180 -56 -247 -72 -36 -9 -94 -25 -130 -36 -36 -11 -81 -19 -100
-17 -30 2 -35 7 -35 28 0 17 8 29 29 39 16 7 25 16 20 20 -5 3 -15 14 -23 23
-12 16 -10 19 15 29 16 6 83 17 149 25 66 8 165 23 220 33 55 10 104 19 108
20 4 1 21 -6 38 -14z m2279 -739 c0 -19 -7 -40 -16 -47 -14 -11 -18 -10 -30 6
-17 23 -18 67 -2 83 20 20 48 -4 48 -42z m-30 -192 c11 -12 10 -25 -4 -71
l-18 -56 23 -17 c21 -16 21 -21 11 -66 -51 -223 -47 -211 -67 -190 -18 18 -20
102 -4 190 10 51 9 67 -5 100 -19 44 -20 65 -6 100 11 30 50 35 70 10z m35
-491 c-4 -32 -13 -90 -21 -129 -9 -48 -12 -110 -8 -192 4 -112 -2 -144 -21
-112 -3 6 -14 10 -23 10 -25 0 -92 -58 -92 -79 0 -27 -154 -224 -317 -406 -71
-79 -78 -103 -33 -111 39 -8 38 -28 0 -44 -17 -7 -36 -21 -43 -30 -7 -9 -37
-30 -67 -45 -30 -15 -66 -36 -79 -46 -13 -11 -31 -19 -40 -19 -10 0 -42 -15
-72 -33 -30 -18 -82 -41 -116 -51 -64 -20 -103 -46 -103 -71 0 -26 16 -24 116
11 54 19 128 42 164 50 36 8 75 24 86 35 30 28 69 22 69 -11 0 -17 -10 -31
-35 -46 -19 -12 -45 -31 -56 -42 -12 -10 -41 -26 -64 -36 -23 -9 -67 -33 -98
-53 l-57 -37 59 -8 c33 -4 64 -12 69 -17 15 -15 0 -40 -30 -53 -15 -7 -46 -25
-67 -40 -21 -16 -49 -28 -62 -28 -31 0 -40 -17 -20 -39 23 -25 11 -47 -41 -73
-24 -12 -62 -37 -83 -56 -47 -39 -102 -52 -128 -29 -10 9 -34 14 -59 14 -52
-2 -58 4 -45 42 26 75 73 113 180 147 24 7 54 23 66 35 13 12 38 27 57 33 24
8 34 17 34 31 0 30 -61 31 -147 2 -40 -14 -93 -28 -117 -32 -33 -6 -47 -14
-60 -36 -9 -16 -53 -59 -99 -95 -60 -47 -82 -70 -78 -82 9 -27 -10 -46 -61
-62 -36 -11 -49 -20 -51 -38 -4 -29 9 -33 104 -35 79 -2 153 -27 161 -53 2 -7
-16 -23 -40 -37 -24 -15 -52 -37 -61 -51 -9 -15 -32 -30 -56 -36 -22 -6 -45
-20 -51 -31 -6 -11 -29 -29 -52 -39 -23 -11 -53 -26 -67 -34 -63 -37 -178 -86
-202 -86 -15 0 -39 -5 -55 -12 -15 -6 -62 -13 -103 -15 -41 -1 -86 -3 -98 -4
-13 0 -36 11 -51 25 -27 25 -81 36 -81 16 0 -18 -29 -11 -40 9 -15 29 -13 36
20 48 20 8 34 23 46 52 9 23 20 41 24 41 4 0 33 21 64 47 43 36 56 54 56 74 0
46 147 183 223 208 24 8 49 28 72 58 19 24 53 55 77 68 151 82 275 129 360
138 36 3 54 12 76 34 15 17 50 42 77 56 64 33 95 62 95 91 0 30 53 102 82 112
13 4 37 17 53 29 49 37 209 123 251 134 57 16 90 50 96 98 4 31 23 63 78 132
39 50 75 91 79 91 4 0 20 18 37 40 16 22 40 53 54 69 33 37 66 80 88 112 9 15
31 46 47 69 77 112 97 161 105 255 5 66 14 105 33 146 15 31 27 62 27 70 0 22
21 39 48 39 23 0 23 -2 17 -57z m-650 -1483 c3 -5 -1 -10 -9 -10 -9 0 -19 0
-23 -1 -4 0 -9 4 -11 10 -5 14 35 14 43 1z m-275 -415 c10 -12 7 -16 -16 -25
-16 -5 -36 -15 -44 -20 -32 -21 -60 -33 -66 -27 -11 11 40 64 71 75 41 14 41
14 55 -3z m-735 -665 c-3 -5 -10 -10 -16 -10 -5 0 -9 5 -9 10 0 6 7 10 16 10
8 0 12 -4 9 -10z"/>
<path d="M7900 8561 c0 -11 5 -23 10 -26 6 -3 10 1 10 9 0 9 0 19 1 23 0 4 -4
9 -10 11 -6 2 -11 -5 -11 -17z"/>
<path d="M8000 8548 c-14 -5 -35 -7 -47 -5 -30 6 -36 -16 -17 -62 15 -38 47
-61 83 -61 17 0 41 54 41 92 0 27 -32 47 -60 36z"/>
<path d="M8180 8290 c0 -5 6 -10 14 -10 8 0 18 5 21 10 3 6 -3 10 -14 10 -12
0 -21 -4 -21 -10z"/>
<path d="M8275 8249 c-9 -14 13 -29 32 -22 8 3 13 6 11 7 -2 1 -10 7 -20 14
-12 10 -18 10 -23 1z"/>
<path d="M5595 8346 c-14 -14 -43 -30 -65 -36 -51 -14 -51 -30 -1 -30 30 0 41
5 46 19 3 10 20 22 38 27 17 6 32 16 32 24 0 24 -24 22 -50 -4z"/>
<path d="M5180 8125 c0 -8 7 -15 15 -15 8 0 15 7 15 15 0 8 -7 15 -15 15 -8 0
-15 -7 -15 -15z"/>
<path d="M5122 8078 c-19 -19 -14 -30 11 -26 12 2 22 9 22 17 0 19 -18 24 -33
9z"/>
<path d="M4290 7468 c-76 -56 -143 -135 -162 -190 -6 -18 -19 -42 -29 -53 -10
-11 -21 -44 -25 -73 -7 -52 -6 -54 16 -50 13 1 28 12 34 23 10 19 82 134 154
245 20 30 47 67 60 82 22 24 23 48 3 48 -4 0 -27 -15 -51 -32z"/>
<path d="M3987 7223 c-4 -3 -7 -15 -7 -25 0 -26 24 -17 28 10 3 21 -8 29 -21
15z"/>
<path d="M3941 7124 c0 -11 3 -14 6 -6 3 7 2 16 -1 19 -3 4 -6 -2 -5 -13z"/>
<path d="M4040 7060 c-14 -33 -7 -64 13 -58 14 5 23 88 9 88 -5 0 -15 -13 -22
-30z"/>
<path d="M4061 6938 c-11 -30 1 -42 33 -34 19 5 26 13 26 31 0 20 -5 25 -25
25 -17 0 -28 -7 -34 -22z"/>
<path d="M4140 6710 c0 -5 4 -10 9 -10 6 0 13 5 16 10 3 6 -1 10 -9 10 -9 0
-16 -4 -16 -10z"/>
<path d="M2331 1711 c-21 -13 5 -24 41 -16 22 5 27 9 17 16 -18 11 -40 11 -58
0z"/>
<path d="M2215 1683 c-27 -9 -72 -31 -98 -50 -39 -29 -45 -38 -36 -50 17 -20
66 -7 107 28 18 16 41 29 50 29 27 0 62 29 56 45 -7 18 -14 18 -79 -2z"/>
</g>
</svg>
